# AST/ASF file generated using VICON BodyLanguage
# -----------------------------------------------
:version 1.10
:name VICON
:units
  mass 1.0
  length 0.45
  angle deg
:documentation
   .ast/.asf automatically generated from VICON data using
   VICON BodyBuilder and BodyLanguage model FoxedUp or BRILLIANT.MOD
:root
   order TX TY TZ RX RY RZ
   axis XYZ
   position 0 0 0  
   orientation 0 0 0 
:bonedata
  begin
     id 1 
     name lhipjoint
     direction 0.567149 -0.783011 0.255413 
     length 2.28399 
     axis 0 0 0  XYZ
  end
  begin
     id 2 
     name lfemur
     direction 0.34202 -0.939693 0  
     length 7.34031  
     axis 0 0 20  XYZ
    dof rx ry rz
    limits (-160.0 20.0)
           (-70.0 70.0)
           (-60.0 70.0)
  end
  begin
     id 3 
     name ltibia
     direction 0.34202 -0.939693 0   
     length 6.9833   
     axis 0 0 20   XYZ
    dof rx
    limits (-10.0 170.0)
  end
  begin
     id 4 
     name lfoot
     direction 0.136498 -0.375025 0.91691   
     length 2.33665   
     axis -90 7.62852e-016 20   XYZ
    dof rx rz
    limits (-45.0 90.0)
           (-70.0 20.0)
  end
  begin
     id 5 
     name ltoes
     direction 1.5367e-011 -4.21617e-011 1   
     length 1.15039   
     axis -90 7.62852e-016 20   XYZ
    dof rx
    limits (-90.0 20.0)
  end
  begin
     id 6 
     name rhipjoint
     direction -0.602854 -0.758518 0.247423   
     length 2.35775  
     axis 0 0 0  XYZ 
  end
  begin
     id 7 
     name rfemur
     direction -0.34202 -0.939693 0   
     length 7.43932   
     axis 0 0 -20   XYZ
    dof rx ry rz
    limits (-160.0 20.0)
           (-70.0 70.0)
           (-70.0 60.0)
  end
  begin
     id 8 
     name rtibia
     direction -0.34202 -0.939693 0   
     length 7.11893   
     axis 0 0 -20   XYZ
    dof rx
    limits (-10.0 170.0)
 end
 begin
     id 9 
     name rfoot
     direction -0.131771 -0.362037 0.922803   
     length 2.53019  
     axis -90 -7.62852e-016 -20   XYZ
    dof rx rz
    limits (-45.0 90.0)
           (-20.0 70.0)
  end
  begin
     id 10 
     name rtoes
     direction -1.53733e-011 -4.21932e-011 1   
     length 1.24596   
     axis -90 -7.62852e-016 -20   XYZ
    dof rx
    limits (-90.0 20.0)
  end
  begin
     id 11 
     name lowerback
     direction 0.0235427 0.999023 -0.0374125   
     length 2.21768   
     axis 0 0 0   XYZ
    dof rx ry rz
    limits (-20.0 45.0)
           (-30.0 30.0)
           (-30.0 30.0)
  end
  begin
     id 12 
     name upperback
     direction 0.0302156 0.996818 -0.073759   
     length 2.20352   
     axis 0 0 0   XYZ
    dof rx ry rz
    limits (-20.0 45.0)
           (-30.0 30.0)
           (-30.0 30.0)
  end
  begin
     id 13 
     name thorax
     direction 0.0187169 0.998235 -0.0563532   
     length 2.22103   
     axis 0 0 0   XYZ
    dof rx ry rz
    limits (-20.0 45.0)
           (-30.0 30.0)
           (-30.0 30.0)
  end
  begin
     id 14 
     name lowerneck
     direction -0.119528 0.987423 0.103481   
     length 1.72948   
     axis 0 0 0   XYZ
    dof rx ry rz
    limits (-20.0 45.0)
           (-30.0 30.0)
           (-30.0 30.0)
  end
  begin
     id 15 
     name upperneck
     direction 0.248049 0.963095 -0.104496   
     length 1.74979   
     axis 0 0 0   XYZ
    dof rx ry rz
    limits (-20.0 45.0)
           (-30.0 30.0)
           (-30.0 30.0)
  end
  begin
     id 16
     name head
     direction 0.0903589 0.994284 -0.056876  
     length 1.78268  
     axis 0 0 0   XYZ
    dof rx ry rz
    limits (-20.0 45.0)
           (-30.0 30.0)
           (-30.0 30.0)
  end
  begin
     id 17 
     name lclavicle
     direction 0.946008 0.242039 -0.215608  
     length 3.80783  
     axis 0 0 0   XYZ
    dof ry rz
    limits (-20.0 10.0)
           (0.0 20.0)
  end
  begin
     id 18 
     name lhumerus
     direction 1 -4.48991e-011 -2.25695e-027   
     length 4.83125   
     axis 180 -30 -90   XYZ
    dof rx ry rz
    limits (-60.0 90.0)
           (-90.0 90.0)
           (-90.0 90.0)
  end
  begin
     id 19
     name lradius
     direction 0.999991 0.00366712 -0.00211721   
     length 3.00391   
     axis 180 -30 -90   XYZ
    dof rx
    limits (-10.0 170.0)
  end
  begin
     id 20
     name lwrist
     direction 0.999991 0.00393016 -0.00141978   
     length 1.50195   
     axis -1.00488e-014 90 90   XYZ
    dof ry
    limits (-180.0 0.0)
 end
  begin
     id 21 
     name lhand
     direction 1 -4.49123e-011 2.72098e-026   
     length 1.2717   
     axis -1.73687e-014 90 90   XYZ
    dof rx rz
    limits (-90.0 90.0)
           (-45.0 45.0)
  end
  begin
     id 22 
     name lfingers
     direction 1 -4.48678e-011 5.4479e-026   
     length 1.02528   
     axis -3.47372e-014 90 90   XYZ
    dof rx
    limits (0.0 90.0)
  end
  begin
     id 23
     name lthumb
     direction 0.707107 -6.34851e-011 0.707107   
     length 1.4721   
     axis -90 45 -1.62303e-014   XYZ
    dof rx rz
    limits (-45.0 45.0)
           (-45.0 45.0)
  end
  begin
     id 24 
     name rclavicle
     direction -0.981723 0.189447 -0.0181673   
     length 3.74989  
     axis 0 0 0   XYZ 
    dof ry rz
    limits (-10.0 20.0)
           (-20.0 0.0)
  end
  begin
     id 25 
     name rhumerus
     direction -1 -4.48985e-011 2.38206e-027  
     length 4.61118   
     axis 180 30 90   XYZ
    dof rx ry rz
    limits (-90.0 60.0)
           (-90.0 90.0)
           (-90.0 90.0)
  end
  begin
     id 26 
     name rradius
     direction -1 -4.48977e-011 7.41019e-027   
     length 2.91491   
     axis 180 30 90   XYZ
    dof rx
    limits (-10.0 170.0)
  end
  begin
     id 27 
     name rwrist
     direction -1 -4.48549e-011 1.3624e-026   
     length 1.45745   
     axis -1.00488e-014 -90 -90   XYZ
    dof ry
    limits (-180.0 0.0)
  end
  begin
     id 28
     name rhand
     direction -1 -4.49107e-011 2.72109e-026   
     length 1.30769   
     axis -1.73687e-014 -90 -90   XYZ
    dof rx rz
    limits (-90.0 90.0)
           (-45.0 45.0)
  end
  begin
     id 29
     name rfingers
     direction -1 -4.48919e-011 5.44468e-026   
     length 1.05429   
     axis -3.47372e-014 -90 -90   XYZ
    dof rx
    limits (0.0 90.0)
  end
  begin
     id 30
     name rthumb
     direction -0.707107 -6.35315e-011 0.707107   
     length 1.51376   
     axis -90 -45 1.62303e-014   XYZ
    dof rx rz
    limits (-45.0 45.0)
           (-45.0 45.0)
  end
:hierarchy
  begin
    root lhipjoint rhipjoint lowerback
    lhipjoint lfemur
    lfemur ltibia
    ltibia lfoot
    lfoot ltoes
    rhipjoint rfemur
    rfemur rtibia
    rtibia rfoot
    rfoot rtoes
    lowerback upperback
    upperback thorax
    thorax lowerneck lclavicle rclavicle
    lowerneck upperneck
    upperneck head
    lclavicle lhumerus
    lhumerus lradius
    lradius lwrist
    lwrist lhand lthumb
    lhand lfingers
    rclavicle rhumerus
    rhumerus rradius
    rradius rwrist
    rwrist rhand rthumb
    rhand rfingers
  end

#!OML:ASF X:\für Bonn\!DataBase\2005_08_11_Bastian_Final\c3d\Bastian.ASF
:FULLY-SPECIFIED
:DEGREES
22
root 0.0278882 17.3404 21.26 -732.754 -171.619 -718.491
lowerback 11.1912 -2.80969 -0.440909
upperback 4.99551 -4.28244 0.555587
thorax -0.977676 -2.37174 1.32719
lowerneck -12.3025 -6.54615 -6.8363
upperneck 12.3618 -9.04267 10.9482
head 6.61304 -3.73845 3.75949
rclavicle -7.98245e-015 9.93923e-017
rhumerus -39.4884 3.57327 -88.266
rradius 29.8519
rwrist -8.2209
rhand -16.8116 2.14426
rfingers 7.12502
rthumb 9.4171 -27.6254
lclavicle -7.98245e-015 9.93923e-017
lhumerus -28.1949 1.81269 87.7085
lradius 6.48036
lwrist 18.2069
lhand -14.2191 -7.8143
lfingers 7.12502
lthumb 11.9178 21.8265
rfemur 6.53758 3.33976 26.2092
rtibia 29.637
rfoot -17.4718 -19.9204
rtoes 5.31471
lfemur 3.67245 -0.772227 -16.7243
ltibia 23.7478
lfoot -7.8597 -9.06849
ltoes -14.9969
23
root 0.00902952 17.3388 21.2396 -732.754 -171.804 -718.444
lowerback 11.0846 -2.80098 -0.321359
upperback 4.97373 -4.25378 0.548216
thorax -0.952164 -2.35359 1.24382
lowerneck -12.2178 -6.59302 -6.91373
upperneck 12.4258 -9.11078 11.0376
head 6.63335 -3.76641 3.79586
rclavicle -3.93003e-014 4.07509e-015
rhumerus -39.5708 3.26974 -88.1858
rradius 29.6435
rwrist -8.14663
rhand -16.8655 2.07748
rfingers 7.12502
rthumb 9.36508 -27.6945
lclavicle -3.93003e-014 4.07509e-015
lhumerus -27.8659 1.26509 88.088
lradius 5.83982
lwrist 19.213
lhand -14.4107 -7.91867
lfingers 7.12502
lthumb 11.733 21.7327
rfemur 6.62339 3.40147 26.224
rtibia 29.605
rfoot -17.4268 -19.847
rtoes 4.93084
lfemur 3.7996 -0.593672 -16.6747
ltibia 23.7244
lfoot -7.93606 -9.03537
ltoes -15.1861
24
root -0.0112738 17.3378 21.2185 -732.76 -171.989 -718.346
lowerback 10.9574 -2.80389 -0.159158
upperback 4.96553 -4.23829 0.565113
thorax -0.901968 -2.34271 1.16138
lowerneck -12.1233 -6.62621 -6.98467
upperneck 12.4424 -9.15694 11.1094
head 6.63369 -3.78747 3.82802
rclavicle -5.88589e-014 1.82882e-014
rhumerus -39.6531 3.06093 -88.122
rradius 29.4779
rwrist -8.13475
rhand -16.9079 2.02894
rfingers 7.12502
rthumb 9.32426 -27.7449
lclavicle -5.88589e-014 1.82882e-014
lhumerus -27.8561 0.754374 88.4824
lradius 5.94499
lwrist 20.0537
lhand -14.4881 -7.67245
lfingers 7.12502
lthumb 11.6585 21.9832
rfemur 6.69468 3.30217 26.2339
rtibia 29.5713
rfoot -17.3323 -19.676
rtoes 4.23039
lfemur 3.92889 -0.420151 -16.5726
ltibia 23.7142
lfoot -8.02385 -8.98766
ltoes -15.2759
25
root -0.0323453 17.3361 21.1953 -732.778 -172.17 -718.272
lowerback 10.8262 -2.82012 -0.0378696
upperback 4.95587 -4.24473 0.577815
thorax -0.848078 -2.34313 1.09967
lowerneck -12.0354 -6.64632 -7.05697
upperneck 12.5127 -9.18862 11.1883
head 6.65129 -3.79865 3.86447
rclavicle -1.25234e-014 2.5842e-015
rhumerus -39.7225 2.76751 -88.0269
rradius 29.2473
rwrist -7.91872
rhand -16.9696 1.97642
rfingers 7.12502
rthumb 9.26472 -27.8
lclavicle -1.25234e-014 2.5842e-015
lhumerus -27.8472 0.297544 88.8698
lradius 6.06749
lwrist 20.791
lhand -14.6432 -7.38567
lfingers 7.12502
lthumb 11.5088 22.2784
rfemur 6.81178 3.29422 26.247
rtibia 29.5255
rfoot -17.3023 -19.5437
rtoes 3.84728
lfemur 4.08593 -0.293925 -16.5074
ltibia 23.7008
lfoot -8.10473 -8.92049
ltoes -14.9847
26
root -0.0542474 17.3337 21.1704 -732.804 -172.365 -718.202
lowerback 10.6857 -2.84227 0.0579794
upperback 4.95127 -4.26282 0.617158
thorax -0.779786 -2.35059 1.07995
lowerneck -11.9713 -6.64355 -7.16272
upperneck 12.5983 -9.18099 11.2375
head 6.67407 -3.79508 3.9005
rclavicle -2.69664e-014 1.45113e-014
rhumerus -39.7853 2.57145 -87.9016
rradius 29.0089
rwrist -7.72055
rhand -16.9542 2.01984
rfingers 7.12502
rthumb 9.27957 -27.7559
lclavicle -2.69664e-014 1.45113e-014
lhumerus -27.8282 -0.107473 89.2565
lradius 6.19793
lwrist 21.364
lhand -14.7289 -7.14601
lfingers 7.12502
lthumb 11.4262 22.5226
rfemur 6.93375 3.24117 26.2399
rtibia 29.4814
rfoot -17.2184 -19.3809
rtoes 3.17428
lfemur 4.26318 -0.0912032 -16.4311
ltibia 23.6912
lfoot -8.23107 -8.90681
ltoes -14.9578
27
root -0.0760612 17.332 21.1466 -732.8 -172.568 -718.128
lowerback 10.5272 -2.85081 0.177261
upperback 4.93835 -4.25912 0.633127
thorax -0.714166 -2.34549 1.01995
lowerneck -11.8739 -6.65029 -7.18115
upperneck 12.646 -9.19477 11.2566
head 6.67546 -3.80149 3.91088
rclavicle 1.39926e-014 -4.87022e-015
rhumerus -39.8864 2.29879 -87.7986
rradius 28.8163
rwrist -7.46149
rhand -16.9233 2.04034
rfingers 7.12502
rthumb 9.30934 -27.7341
lclavicle 1.39926e-014 -4.87022e-015
lhumerus -27.7753 -0.599874 89.5816
lradius 6.31275
lwrist 21.8043
lhand -14.7709 -6.9588
lfingers 7.12502
lthumb 11.3857 22.7121
rfemur 7.01838 3.17185 26.2258
rtibia 29.4333
rfoot -17.1373 -19.1934
rtoes 2.60191
lfemur 4.40731 0.0794471 -16.3534
ltibia 23.6892
lfoot -8.32683 -8.90814
ltoes -14.596
28
root -0.0985331 17.3305 21.1214 -732.816 -172.785 -718.063
lowerback 10.381 -2.85896 0.274637
upperback 4.91718 -4.25665 0.660402
thorax -0.661281 -2.34119 0.985035
lowerneck -11.7411 -6.65274 -7.26326
upperneck 12.7122 -9.19949 11.3154
head 6.6807 -3.80374 3.94663
rclavicle -4.24467e-014 8.44835e-015
rhumerus -40.0086 2.04659 -87.686
rradius 28.6254
rwrist -7.17784
rhand -16.8646 2.07173
rfingers 7.12502
rthumb 9.36597 -27.7002
lclavicle -4.24467e-014 8.44835e-015
lhumerus -27.7318 -1.07777 89.8903
lradius 6.42633
lwrist 22.1083
lhand -14.8094 -6.8143
lfingers 7.12502
lthumb 11.3486 22.8586
rfemur 7.12618 3.09223 26.1932
rtibia 29.3933
rfoot -17.0604 -18.9541
rtoes 2.1474
lfemur 4.57858 0.254609 -16.2894
ltibia 23.6861
lfoot -8.41854 -8.87402
ltoes -14.1399
29
root -0.121309 17.3279 21.0963 -732.84 -172.995 -717.996
lowerback 10.2128 -2.86419 0.388466
upperback 4.93516 -4.25443 0.678852
thorax -0.557537 -2.33875 0.92889
lowerneck -11.6594 -6.65529 -7.29956
upperneck 12.7279 -9.20544 11.3574
head 6.67592 -3.80622 3.96776
rclavicle -1.13028e-014 9.74045e-015
rhumerus -40.0897 1.82338 -87.5981
rradius 28.4568
rwrist -6.991
rhand -16.792 2.16622
rfingers 7.12502
rthumb 9.43603 -27.6025
lclavicle -1.13028e-014 9.74045e-015
lhumerus -27.5909 -1.60114 90.1411
lradius 6.4824
lwrist 22.2535
lhand -14.7815 -6.77061
lfingers 7.12502
lthumb 11.3755 22.9008
rfemur 7.24758 3.07914 26.1843
rtibia 29.3618
rfoot -17.0417 -18.7827
rtoes 1.65549
lfemur 4.7629 0.467516 -16.2171
ltibia 23.6691
lfoot -8.51905 -8.88789
ltoes -13.9098
